# Blender v2.77 (sub 0) OBJ File: ''
# www.blender.org
mtllib errored.mtl
o errored
v -0.265165 2.441942 0.125000
v 0.265165 1.558058 0.125000
v 0.441942 1.734835 0.125000
v -0.441942 2.265165 0.125000
v -0.441942 2.265165 -0.125000
v 0.441942 1.734835 -0.125000
v 0.265165 1.558058 -0.125000
v -0.265165 2.441942 -0.125000
v -0.265165 2.441942 -0.125000
v 0.441942 1.734835 0.125000
v 0.441942 1.734835 -0.125000
v -0.265165 2.441942 0.125000
v 0.441942 1.734835 0.125000
v 0.265165 1.558058 -0.125000
v 0.441942 1.734835 -0.125000
v 0.265165 1.558058 0.125000
v -0.441942 2.265165 0.125000
v 0.265165 1.558058 -0.125000
v 0.265165 1.558058 0.125000
v -0.441942 2.265165 -0.125000
v -0.265165 2.441942 -0.125000
v -0.441942 2.265165 0.125000
v -0.265165 2.441942 0.125000
v -0.441942 2.265165 -0.125000
v 0.360226 2.296525 -0.252110
v -0.261844 1.843979 0.433988
v -0.057056 1.700585 0.433988
v 0.155438 2.439919 -0.252110
v 0.057056 2.299415 -0.433987
v -0.155438 1.560080 0.252111
v -0.360226 1.703475 0.252111
v 0.261844 2.156021 -0.433988
v 0.261844 2.156021 -0.433988
v -0.057056 1.700585 0.433988
v -0.155438 1.560080 0.252111
v 0.360226 2.296525 -0.252110
v -0.057056 1.700585 0.433988
v -0.360226 1.703475 0.252111
v -0.155438 1.560080 0.252111
v -0.261844 1.843979 0.433988
v 0.155438 2.439919 -0.252110
v -0.360226 1.703475 0.252111
v -0.261844 1.843979 0.433988
v 0.057056 2.299415 -0.433987
v 0.261844 2.156021 -0.433988
v 0.155438 2.439919 -0.252110
v 0.360226 2.296525 -0.252110
v 0.057056 2.299415 -0.433987
vt 0.5000 0.5000
vt 0.2500 0.0000
vt 0.5000 0.0000
vt 0.2500 0.5000
vt 1.0000 0.5000
vt 0.7500 0.0000
vt 1.0000 0.0000
vt 0.7500 0.5000
vt 0.7500 0.5000
vt 0.5000 0.0000
vt 0.7500 0.0000
vt 0.5000 0.5000
vt 0.7500 0.6250
vt 0.5000 0.5000
vt 0.7500 0.5000
vt 0.5000 0.6250
vt 0.2500 0.5000
vt 0.0000 0.0000
vt 0.2500 0.0000
vt 0.0000 0.5000
vt 0.5000 0.6250
vt 0.2500 0.5000
vt 0.5000 0.5000
vt 0.2500 0.6250
vt 0.5000 0.5000
vt 0.2500 0.0000
vt 0.5000 0.0000
vt 0.2500 0.5000
vt 1.0000 0.5000
vt 0.7500 0.0000
vt 1.0000 0.0000
vt 0.7500 0.5000
vt 0.7500 0.5000
vt 0.5000 0.0000
vt 0.7500 0.0000
vt 0.5000 0.5000
vt 0.7500 0.6250
vt 0.5000 0.5000
vt 0.7500 0.5000
vt 0.5000 0.6250
vt 0.2500 0.5000
vt 0.0000 0.0000
vt 0.2500 0.0000
vt 0.0000 0.5000
vt 0.5000 0.6250
vt 0.2500 0.5000
vt 0.5000 0.5000
vt 0.2500 0.6250
vn -0.0000 -0.0000 1.0000
vn 0.0000 0.0000 -1.0000
vn 0.7071 0.7071 0.0000
vn 0.7071 -0.7071 0.0000
vn -0.7071 -0.7071 0.0000
vn -0.7071 0.7071 0.0000
vn 0.3935 0.5620 0.7275
vn -0.3935 -0.5620 -0.7275
vn 0.8192 -0.5736 -0.0000
vn -0.4173 -0.5959 0.6861
vn -0.8192 0.5736 0.0000
vn 0.4173 0.5959 -0.6861
usemtl None
s 1
f 1/1/1 2/2/1 3/3/1
f 1/1/1 4/4/1 2/2/1
f 5/5/2 6/6/2 7/7/2
f 5/5/2 8/8/2 6/6/2
f 9/9/3 10/10/3 11/11/3
f 9/9/3 12/12/3 10/10/3
f 13/13/4 14/14/4 15/15/4
f 13/13/4 16/16/4 14/14/4
f 17/17/5 18/18/5 19/19/5
f 17/17/5 20/20/5 18/18/5
f 21/21/6 22/22/6 23/23/6
f 21/21/6 24/24/6 22/22/6
f 25/25/7 26/26/7 27/27/7
f 25/25/7 28/28/7 26/26/7
f 29/29/8 30/30/8 31/31/8
f 29/29/8 32/32/8 30/30/8
f 33/33/9 34/34/9 35/35/9
f 33/33/9 36/36/9 34/34/9
f 37/37/10 38/38/10 39/39/10
f 37/37/10 40/40/10 38/38/10
f 41/41/11 42/42/11 43/43/11
f 41/41/11 44/44/11 42/42/11
f 45/45/12 46/46/12 47/47/12
f 45/45/12 48/48/12 46/46/12
